<svg width="180" height="180" viewBox="0 0 180 180" fill="none" xmlns="http://www.w3.org/2000/svg">
<circle cx="90" cy="90" r="90" fill="#2D2D2C"/>
<path d="M91.0909 58.1818C91.0909 56.4245 92.5155 55 94.2727 55C96.03 55 97.4545 56.4245 97.4545 58.1818V83.6364C97.4545 85.3936 96.03 86.8182 94.2727 86.8182C92.5155 86.8182 91.0909 85.3936 91.0909 83.6364V58.1818Z" fill="#51A94A"/>
<path d="M111.455 97.6364C111.455 107.126 103.762 114.818 94.2727 114.818C84.7835 114.818 77.0909 107.126 77.0909 97.6364C77.0909 88.1471 84.7835 80.4545 94.2727 80.4545C103.762 80.4545 111.455 88.1471 111.455 97.6364Z" fill="#A96B49"/>
<path d="M47.8182 94.4545C47.8182 90.94 50.6673 88.0909 54.1818 88.0909H130.545C134.06 88.0909 136.909 90.94 136.909 94.4545V118.636C136.909 122.151 134.06 125 130.545 125H54.1818C50.6673 125 47.8182 122.151 47.8182 118.636V94.4545Z" fill="#C1805C"/>
<path d="M47.8182 95.7273H122.909C126.424 95.7273 129.273 98.5764 129.273 102.091V111C129.273 114.515 126.424 117.364 122.909 117.364H47.8182V95.7273Z" fill="#F6F7F6"/>
<path fill-rule="evenodd" clip-rule="evenodd" d="M47.8182 100.818H120.364C121.067 100.818 121.636 101.388 121.636 102.091C121.636 102.794 121.067 103.364 120.364 103.364H47.8182V100.818Z" fill="#E5E6E4"/>
<path fill-rule="evenodd" clip-rule="evenodd" d="M47.8182 109.727H120.364C121.067 109.727 121.636 110.297 121.636 111C121.636 111.703 121.067 112.273 120.364 112.273H47.8182V109.727Z" fill="#E5E6E4"/>
<path d="M44 91.9091C44 89.8004 45.7095 88.0909 47.8182 88.0909H91.0909C93.1996 88.0909 94.9091 89.8004 94.9091 91.9091C94.9091 94.0178 93.1996 95.7273 91.0909 95.7273H47.8182C45.7095 95.7273 44 94.0178 44 91.9091Z" fill="#C1805C"/>
<path d="M44 121.182C44 119.073 45.7095 117.364 47.8182 117.364H91.0909C93.1996 117.364 94.9091 119.073 94.9091 121.182C94.9091 123.291 93.1996 125 91.0909 125H47.8182C45.7095 125 44 123.291 44 121.182Z" fill="#C1805C"/>
<path d="M75.8182 61.3636C75.8182 59.2549 77.5276 57.5455 79.6364 57.5455H86.2545C89.6285 57.5455 92.3636 60.2806 92.3636 63.6545C92.3636 64.498 91.6799 65.1818 90.8364 65.1818H79.6364C77.5276 65.1818 75.8182 63.4724 75.8182 61.3636Z" fill="#65B95E"/>
<path d="M110.182 69C110.182 66.8913 108.472 65.1818 106.364 65.1818H101.018C97.6442 65.1818 94.9091 67.917 94.9091 71.2909C94.9091 72.1344 95.5929 72.8182 96.4364 72.8182H106.364C108.472 72.8182 110.182 71.1087 110.182 69Z" fill="#65B95E"/>
</svg>
