<svg width="161" height="160" viewBox="0 0 161 160" fill="none" xmlns="http://www.w3.org/2000/svg">
<circle cx="80.832" cy="80" r="80" fill="#2D2D2C"/>
<path d="M81.8039 51.715C81.8039 50.153 83.0702 48.8867 84.6322 48.8867C86.1942 48.8867 87.4605 50.153 87.4605 51.715V74.3413C87.4605 75.9033 86.1942 77.1695 84.6322 77.1695C83.0702 77.1695 81.8039 75.9033 81.8039 74.3413V51.715Z" fill="#51A94A"/>
<path d="M99.9049 86.7857C99.9049 95.2206 93.0671 102.058 84.6322 102.058C76.1973 102.058 69.3595 95.2206 69.3595 86.7857C69.3595 78.3508 76.1973 71.513 84.6322 71.513C93.0671 71.513 99.9049 78.3508 99.9049 86.7857Z" fill="#A96B49"/>
<path d="M43.3393 83.9574C43.3393 80.8334 45.8718 78.3009 48.9958 78.3009H116.875C119.999 78.3009 122.531 80.8334 122.531 83.9574V105.452C122.531 108.576 119.999 111.109 116.875 111.109H48.9958C45.8718 111.109 43.3393 108.576 43.3393 105.452V83.9574Z" fill="#C1805C"/>
<path d="M43.3393 85.0887H110.087C113.211 85.0887 115.743 87.6213 115.743 90.7453V98.6645C115.743 101.789 113.211 104.321 110.087 104.321H43.3393V85.0887Z" fill="#F6F7F6"/>
<path fill-rule="evenodd" clip-rule="evenodd" d="M43.3393 89.614H107.824C108.449 89.614 108.955 90.1205 108.955 90.7453C108.955 91.3701 108.449 91.8766 107.824 91.8766H43.3393V89.614Z" fill="#E5E6E4"/>
<path fill-rule="evenodd" clip-rule="evenodd" d="M43.3393 97.5332H107.824C108.449 97.5332 108.955 98.0397 108.955 98.6645C108.955 99.2893 108.449 99.7958 107.824 99.7958H43.3393V97.5332Z" fill="#E5E6E4"/>
<path d="M39.9453 81.6948C39.9453 79.8204 41.4648 78.3009 43.3393 78.3009H81.8039C83.6783 78.3009 85.1978 79.8204 85.1978 81.6948C85.1978 83.5692 83.6783 85.0887 81.8039 85.0887H43.3393C41.4648 85.0887 39.9453 83.5692 39.9453 81.6948Z" fill="#C1805C"/>
<path d="M39.9453 107.715C39.9453 105.841 41.4648 104.321 43.3393 104.321H81.8039C83.6783 104.321 85.1978 105.841 85.1978 107.715C85.1978 109.589 83.6783 111.109 81.8039 111.109H43.3393C41.4648 111.109 39.9453 109.589 39.9453 107.715Z" fill="#C1805C"/>
<path d="M68.2281 54.5433C68.2281 52.6689 69.7477 51.1493 71.6221 51.1493H77.5049C80.504 51.1493 82.9352 53.5806 82.9352 56.5796C82.9352 57.3294 82.3274 57.9372 81.5776 57.9372H71.6221C69.7477 57.9372 68.2281 56.4177 68.2281 54.5433Z" fill="#65B95E"/>
<path d="M98.7736 61.3312C98.7736 59.4567 97.2541 57.9372 95.3797 57.9372H90.6281C87.6291 57.9372 85.1978 60.3685 85.1978 63.3675C85.1978 64.1173 85.8056 64.7251 86.5554 64.7251H95.3797C97.2541 64.7251 98.7736 63.2056 98.7736 61.3312Z" fill="#65B95E"/>
</svg>
