<svg width="100" height="100" viewBox="0 0 100 100" fill="none" xmlns="http://www.w3.org/2000/svg">
<circle cx="50" cy="50" r="50" fill="#2D2D2C"/>
<path d="M50.6069 32.3224C50.6069 31.3461 51.3983 30.5547 52.3746 30.5547C53.3509 30.5547 54.1423 31.3461 54.1423 32.3224V46.4638C54.1423 47.44 53.3509 48.2315 52.3746 48.2315C51.3983 48.2315 50.6069 47.44 50.6069 46.4638V32.3224Z" fill="#51A94A"/>
<path d="M61.9201 54.2416C61.9201 59.5134 57.6464 63.787 52.3746 63.787C47.1028 63.787 42.8292 59.5134 42.8292 54.2416C42.8292 48.9697 47.1028 44.6961 52.3746 44.6961C57.6464 44.6961 61.9201 48.9697 61.9201 54.2416Z" fill="#A96B49"/>
<path d="M26.5665 52.4739C26.5665 50.5214 28.1494 48.9385 30.1019 48.9385H72.5261C74.4786 48.9385 76.0615 50.5214 76.0615 52.4739V65.9082C76.0615 67.8607 74.4786 69.4436 72.5261 69.4436H30.1019C28.1494 69.4436 26.5665 67.8607 26.5665 65.9082V52.4739Z" fill="#C1805C"/>
<path d="M26.5665 53.181H68.2837C70.2362 53.181 71.8191 54.7638 71.8191 56.7163V61.6658C71.8191 63.6183 70.2362 65.2012 68.2837 65.2012H26.5665V53.181Z" fill="#F6F7F6"/>
<path fill-rule="evenodd" clip-rule="evenodd" d="M26.5665 56.0092H66.8696C67.2601 56.0092 67.5766 56.3258 67.5766 56.7163C67.5766 57.1068 67.2601 57.4234 66.8696 57.4234H26.5665V56.0092Z" fill="#E5E6E4"/>
<path fill-rule="evenodd" clip-rule="evenodd" d="M26.5665 60.9587H66.8696C67.2601 60.9587 67.5766 61.2753 67.5766 61.6658C67.5766 62.0563 67.2601 62.3729 66.8696 62.3729H26.5665V60.9587Z" fill="#E5E6E4"/>
<path d="M24.4453 51.0597C24.4453 49.8882 25.395 48.9385 26.5665 48.9385H50.6069C51.7784 48.9385 52.7281 49.8882 52.7281 51.0597C52.7281 52.2313 51.7784 53.181 50.6069 53.181H26.5665C25.395 53.181 24.4453 52.2313 24.4453 51.0597Z" fill="#C1805C"/>
<path d="M24.4453 67.3224C24.4453 66.1509 25.395 65.2012 26.5665 65.2012H50.6069C51.7784 65.2012 52.7281 66.1509 52.7281 67.3224C52.7281 68.4939 51.7784 69.4436 50.6069 69.4436H26.5665C25.395 69.4436 24.4453 68.4939 24.4453 67.3224Z" fill="#C1805C"/>
<path d="M42.1221 34.09C42.1221 32.9185 43.0718 31.9688 44.2433 31.9688H47.9201C49.7945 31.9688 51.314 33.4883 51.314 35.3628C51.314 35.8314 50.9341 36.2113 50.4655 36.2113H44.2433C43.0718 36.2113 42.1221 35.2616 42.1221 34.09Z" fill="#65B95E"/>
<path d="M61.213 38.3325C61.213 37.161 60.2633 36.2113 59.0918 36.2113H56.1221C54.2477 36.2113 52.7281 37.7308 52.7281 39.6052C52.7281 40.0738 53.108 40.4537 53.5766 40.4537H59.0918C60.2633 40.4537 61.213 39.504 61.213 38.3325Z" fill="#65B95E"/>
</svg>
