<svg width="100" height="100" viewBox="0 0 100 100" fill="none" xmlns="http://www.w3.org/2000/svg">
<circle cx="50" cy="50" r="50" fill="#2D2D2C"/>
<rect x="46.3164" y="33.6523" width="35.6085" height="23.0925" rx="11.5463" transform="rotate(29.1938 46.3164 33.6523)" fill="#D4976E"/>
<rect x="22.2266" y="48.0508" width="29.4625" height="23.0925" rx="11.5463" transform="rotate(-13.278 22.2266 48.0508)" fill="#F6BB92"/>
<rect x="36.2188" y="61.3203" width="26.0201" height="6.96822" rx="3.48411" transform="rotate(-13.278 36.2188 61.3203)" fill="#F6BB92"/>
<rect x="33.8398" y="55.3555" width="29.9048" height="6.96822" rx="3.48411" transform="rotate(-13.278 33.8398 55.3555)" fill="#F6BB92"/>
<rect x="33.6367" y="40.3438" width="23.3702" height="6.96822" rx="3.48411" transform="rotate(-28.9251 33.6367 40.3438)" fill="#F6BB92"/>
<rect x="51.1367" y="28.5391" width="12.8497" height="6.96822" rx="3.48411" transform="rotate(28.0908 51.1367 28.5391)" fill="#D7A481"/>
<rect x="52.9961" y="36.6211" width="12.2691" height="6.96822" rx="3.48411" transform="rotate(-177.127 52.9961 36.6211)" fill="#AE754E"/>
<rect x="56.9805" y="46.6641" width="17.3455" height="6.96822" rx="3.48411" transform="rotate(-131.372 56.9805 46.6641)" fill="#AE754E"/>
<rect x="33.4805" y="48.6719" width="29.9048" height="6.96822" rx="3.48411" transform="rotate(-13.278 33.4805 48.6719)" fill="#F6BB92"/>
<rect x="39.75" y="41.2148" width="23.3702" height="6.96822" rx="3.48411" transform="rotate(-13.278 39.75 41.2148)" fill="#F6BB92"/>
<rect x="46.7891" y="48.918" width="21.4284" height="6.96822" rx="3.48411" transform="rotate(-151.146 46.7891 48.918)" fill="#D4976E"/>
<rect x="40.5469" y="53" width="17.4285" height="6.96822" rx="3.48411" transform="rotate(-151.146 40.5469 53)" fill="#D4976E"/>
<rect x="35.625" y="56.4297" width="14.5225" height="6.96822" rx="3.48411" transform="rotate(-151.146 35.625 56.4297)" fill="#D4976E"/>
<rect x="48.8555" y="42.8047" width="17.3455" height="6.96822" rx="3.48411" transform="rotate(-151.146 48.8555 42.8047)" fill="#D4976E"/>
</svg>
