<svg width="161" height="160" viewBox="0 0 161 160" fill="none" xmlns="http://www.w3.org/2000/svg">
<circle cx="80.1641" cy="80" r="80" fill="#2D2D2C"/>
<rect x="74.2656" y="53.8438" width="56.9737" height="36.9481" rx="18.474" transform="rotate(29.1938 74.2656 53.8438)" fill="#D4976E"/>
<rect x="35.7227" y="76.8867" width="47.14" height="36.9481" rx="18.474" transform="rotate(-13.278 35.7227 76.8867)" fill="#F6BB92"/>
<rect x="58.1094" y="98.1133" width="41.6321" height="11.1491" rx="5.57457" transform="rotate(-13.278 58.1094 98.1133)" fill="#F6BB92"/>
<rect x="54.3047" y="88.5742" width="47.8477" height="11.1491" rx="5.57457" transform="rotate(-13.278 54.3047 88.5742)" fill="#F6BB92"/>
<rect x="53.9805" y="64.5508" width="37.3924" height="11.1491" rx="5.57457" transform="rotate(-28.9251 53.9805 64.5508)" fill="#F6BB92"/>
<rect x="81.9805" y="45.6641" width="20.5596" height="11.1491" rx="5.57457" transform="rotate(28.0908 81.9805 45.6641)" fill="#D7A481"/>
<rect x="84.9531" y="58.5938" width="19.6305" height="11.1491" rx="5.57457" transform="rotate(-177.127 84.9531 58.5938)" fill="#AE754E"/>
<rect x="91.3281" y="74.668" width="27.7528" height="11.1491" rx="5.57457" transform="rotate(-131.372 91.3281 74.668)" fill="#AE754E"/>
<rect x="53.7305" y="77.875" width="47.8477" height="11.1491" rx="5.57457" transform="rotate(-13.278 53.7305 77.875)" fill="#F6BB92"/>
<rect x="63.7617" y="65.9492" width="37.3924" height="11.1491" rx="5.57457" transform="rotate(-13.278 63.7617 65.9492)" fill="#F6BB92"/>
<rect x="75.0234" y="78.2734" width="34.2854" height="11.1491" rx="5.57457" transform="rotate(-151.146 75.0234 78.2734)" fill="#D4976E"/>
<rect x="65.0352" y="84.8047" width="27.8856" height="11.1491" rx="5.57457" transform="rotate(-151.146 65.0352 84.8047)" fill="#D4976E"/>
<rect x="57.1602" y="90.293" width="23.2359" height="11.1491" rx="5.57457" transform="rotate(-151.146 57.1602 90.293)" fill="#D4976E"/>
<rect x="78.3281" y="68.4922" width="27.7528" height="11.1491" rx="5.57457" transform="rotate(-151.146 78.3281 68.4922)" fill="#D4976E"/>
</svg>
