<svg width="180" height="180" viewBox="0 0 180 180" fill="none" xmlns="http://www.w3.org/2000/svg">
<circle cx="90" cy="90" r="90" fill="#2D2D2C"/>
<rect x="83.3594" y="60.5703" width="64.0954" height="41.5666" rx="20.7833" transform="rotate(29.1938 83.3594 60.5703)" fill="#D4976E"/>
<rect x="40" y="86.4961" width="53.0325" height="41.5666" rx="20.7833" transform="rotate(-13.278 40 86.4961)" fill="#F6BB92"/>
<rect x="65.1836" y="110.371" width="46.8361" height="12.5428" rx="6.27139" transform="rotate(-13.278 65.1836 110.371)" fill="#F6BB92"/>
<rect x="60.9062" y="99.6406" width="53.8287" height="12.5428" rx="6.27139" transform="rotate(-13.278 60.9062 99.6406)" fill="#F6BB92"/>
<rect x="60.5352" y="72.6133" width="42.0664" height="12.5428" rx="6.27139" transform="rotate(-28.9251 60.5352 72.6133)" fill="#F6BB92"/>
<rect x="92.0352" y="51.3672" width="23.1295" height="12.5428" rx="6.27139" transform="rotate(28.0908 92.0352 51.3672)" fill="#D7A481"/>
<rect x="95.3867" y="65.9141" width="22.0843" height="12.5428" rx="6.27139" transform="rotate(-177.127 95.3867 65.9141)" fill="#AE754E"/>
<rect x="102.559" y="84" width="31.2219" height="12.5428" rx="6.27139" transform="rotate(-131.372 102.559 84)" fill="#AE754E"/>
<rect x="60.2539" y="87.6094" width="53.8287" height="12.5428" rx="6.27139" transform="rotate(-13.278 60.2539 87.6094)" fill="#F6BB92"/>
<rect x="71.543" y="74.1875" width="42.0664" height="12.5428" rx="6.27139" transform="rotate(-13.278 71.543 74.1875)" fill="#F6BB92"/>
<rect x="84.2148" y="88.0547" width="38.5711" height="12.5428" rx="6.27139" transform="rotate(-151.146 84.2148 88.0547)" fill="#D4976E"/>
<rect x="72.9766" y="95.4023" width="31.3713" height="12.5428" rx="6.27139" transform="rotate(-151.146 72.9766 95.4023)" fill="#D4976E"/>
<rect x="64.1172" y="101.578" width="26.1404" height="12.5428" rx="6.27139" transform="rotate(-151.146 64.1172 101.578)" fill="#D4976E"/>
<rect x="87.9297" y="77.0547" width="31.2219" height="12.5428" rx="6.27139" transform="rotate(-151.146 87.9297 77.0547)" fill="#D4976E"/>
</svg>
