<svg width="180" height="180" viewBox="0 0 180 180" fill="none" xmlns="http://www.w3.org/2000/svg">
<circle cx="90" cy="90" r="90" fill="#2D2D2C"/>
<path d="M100.859 65.7451C100.859 72.4433 95.6781 77.8733 89.2878 77.8733C82.8975 77.8733 77.7171 72.4433 77.7171 65.7451C77.7171 59.0469 82.8975 53.6169 89.2878 53.6169C95.6781 53.6169 100.859 59.0469 100.859 65.7451Z" fill="#FBBE2C"/>
<path d="M100.859 120.873C100.859 127.572 95.6781 133.002 89.2878 133.002C82.8975 133.002 77.7171 127.572 77.7171 120.873C77.7171 114.175 82.8975 108.745 89.2878 108.745C95.6781 108.745 100.859 114.175 100.859 120.873Z" fill="#FF9201"/>
<path d="M94.7602 65.7451H82.9449C79.0697 65.7451 75.5476 68.0025 73.9453 71.5328C67.9523 84.7363 63.7461 94.3956 57.1681 107.05C53.6666 113.786 58.4487 121.976 66.0371 121.976H111.053C118.959 121.976 123.704 113.149 119.787 106.277C113.227 94.7695 109.07 85.0082 104.027 72.0978C102.535 68.2762 98.8611 65.7451 94.7602 65.7451Z" fill="#FED843"/>
<path d="M97.5526 85.9794C97.5526 83.9382 99.2064 82.2836 101.246 82.2836C103.287 82.2836 104.94 83.9382 104.94 85.9794V95.835C104.94 97.8761 103.287 99.5308 101.246 99.5308C99.2064 99.5308 97.5526 97.8761 97.5526 95.835V85.9794Z" fill="#FFE479"/>
<path d="M123.377 64.3846C123.377 72.6052 116.716 79.2692 108.5 79.2692C100.284 79.2692 93.6233 72.6052 93.6233 64.3846C93.6233 56.1641 100.284 49.5 108.5 49.5C116.716 49.5 123.377 56.1641 123.377 64.3846Z" fill="#65B95E"/>
</svg>
