<svg width="100" height="100" viewBox="0 0 100 100" fill="none" xmlns="http://www.w3.org/2000/svg">
<circle cx="50" cy="50" r="50" fill="#2D2D2C"/>
<path d="M56.0347 36.5251C56.0347 40.2463 53.1567 43.263 49.6065 43.263C46.0563 43.263 43.1783 40.2463 43.1783 36.5251C43.1783 32.8038 46.0563 29.7872 49.6065 29.7872C53.1567 29.7872 56.0347 32.8038 56.0347 36.5251Z" fill="#FBBE2C"/>
<path d="M56.0347 67.1518C56.0347 70.8731 53.1567 73.8897 49.6065 73.8897C46.0563 73.8897 43.1783 70.8731 43.1783 67.1518C43.1783 63.4306 46.0563 60.4139 49.6065 60.4139C53.1567 60.4139 56.0347 63.4306 56.0347 67.1518Z" fill="#FF9201"/>
<path d="M52.6467 36.5251H46.0827C43.9298 36.5251 41.9731 37.7792 41.0829 39.7404C37.7534 47.0757 35.4167 52.442 31.7622 59.472C29.8169 63.2142 32.4737 67.7644 36.6895 67.7644H61.6982C66.0905 67.7644 68.7265 62.8603 66.5504 59.0429C62.9059 52.6497 60.5965 47.2268 57.7951 40.0543C56.9658 37.9312 54.925 36.5251 52.6467 36.5251Z" fill="#FED843"/>
<path d="M54.1981 47.7663C54.1981 46.6324 55.1168 45.7131 56.2502 45.7131C57.3836 45.7131 58.3024 46.6324 58.3024 47.7663V53.2416C58.3024 54.3756 57.3836 55.2949 56.2502 55.2949C55.1168 55.2949 54.1981 54.3756 54.1981 53.2416V47.7663Z" fill="#FFE479"/>
<path d="M68.5448 35.7692C68.5448 40.3362 64.8445 44.0385 60.2799 44.0385C55.7154 44.0385 52.0151 40.3362 52.0151 35.7692C52.0151 31.2023 55.7154 27.5 60.2799 27.5C64.8445 27.5 68.5448 31.2023 68.5448 35.7692Z" fill="#65B95E"/>
</svg>
