<svg width="161" height="160" viewBox="0 0 161 160" fill="none" xmlns="http://www.w3.org/2000/svg">
<circle cx="80.5" cy="80" r="80" fill="#2D2D2C"/>
<path d="M90.1555 58.4401C90.1555 64.3941 85.5507 69.2207 79.8704 69.2207C74.1901 69.2207 69.5853 64.3941 69.5853 58.4401C69.5853 52.4861 74.1901 47.6595 79.8704 47.6595C85.5507 47.6595 90.1555 52.4861 90.1555 58.4401Z" fill="#FBBE2C"/>
<path d="M90.1555 107.443C90.1555 113.397 85.5507 118.224 79.8704 118.224C74.1901 118.224 69.5853 113.397 69.5853 107.443C69.5853 101.489 74.1901 96.6623 79.8704 96.6623C85.5507 96.6623 90.1555 101.489 90.1555 107.443Z" fill="#FF9201"/>
<path d="M84.7348 58.4401H74.2323C70.7877 58.4401 67.6569 60.4467 66.2326 63.5847C60.9055 75.3211 57.1667 83.9072 51.3196 95.1552C48.2071 101.143 52.4579 108.423 59.2032 108.423H99.217C106.245 108.423 110.462 100.576 106.981 94.4686C101.149 84.2396 97.4544 75.5628 92.9721 64.0869C91.6453 60.6899 88.38 58.4401 84.7348 58.4401Z" fill="#FED843"/>
<path d="M87.2169 76.4261C87.2169 74.6118 88.687 73.1409 90.5003 73.1409C92.3137 73.1409 93.7838 74.6118 93.7838 76.4261V85.1866C93.7838 87.001 92.3137 88.4718 90.5003 88.4718C88.687 88.4718 87.2169 87.001 87.2169 85.1866V76.4261Z" fill="#FFE479"/>
<path d="M110.172 57.2308C110.172 64.5379 104.251 70.4615 96.9479 70.4615C89.6447 70.4615 83.7242 64.5379 83.7242 57.2308C83.7242 49.9236 89.6447 44 96.9479 44C104.251 44 110.172 49.9236 110.172 57.2308Z" fill="#65B95E"/>
</svg>
