<svg width="24" height="24" viewBox="0 0 24 24" fill="none" xmlns="http://www.w3.org/2000/svg">
<path d="M0 12.7503C0 12.2501 0 11.7504 0 11.2502C0.0192635 11.0966 0.0399366 10.943 0.0568509 10.7889C0.334528 8.24705 1.29629 5.99918 2.99242 4.0829C4.8577 1.97593 7.18107 0.665532 9.95971 0.181295C10.3887 0.106147 10.8228 0.0596489 11.2541 0C11.7545 0 12.2544 0 12.7548 0C12.9084 0.0192567 13.0621 0.0403922 13.2157 0.0568309C15.7435 0.331122 17.9959 1.26672 19.8879 2.96554C23.0542 5.80896 24.4144 9.38132 23.8901 13.6C23.4874 16.8403 21.9238 19.4827 19.3434 21.483C16.7034 23.5299 13.6917 24.3147 10.3835 23.8873C7.98027 23.5768 5.86269 22.5943 4.05286 20.9819C1.9771 19.1313 0.679861 16.8337 0.186527 14.0922C0.106654 13.6479 0.0615493 13.1979 0 12.7503ZM19.0455 18.1333C19.0493 18.0436 19.0554 17.9745 19.0554 17.9055C19.0554 16.3199 19.0591 14.7347 19.0526 13.1491C19.0512 12.8142 19.0291 12.4774 18.9882 12.1454C18.7768 10.4334 17.7506 9.35736 16.1001 9.16715C14.9053 9.02953 13.8937 9.39071 13.18 10.4146C13.156 10.4489 13.1241 10.478 13.0527 10.5574V9.35971H10.1481V18.1267H13.0564V17.836C13.0564 16.6566 13.055 15.4773 13.0574 14.2979C13.0583 13.8451 13.0569 13.3919 13.0762 12.9396C13.0992 12.4103 13.3665 12.0045 13.7903 11.7095C14.6332 11.1224 15.7228 11.4963 16.0019 12.4798C16.094 12.8048 16.125 13.1561 16.1278 13.4962C16.141 14.9564 16.1334 16.4171 16.1334 17.8778C16.1334 17.9604 16.1334 18.0431 16.1334 18.1333H19.046H19.0455ZM5.60005 18.1248H8.50978C8.51354 18.0633 8.51918 18.0177 8.51918 17.9722C8.51918 15.1677 8.51777 12.3633 8.5234 9.55886C8.5234 9.37474 8.45857 9.33905 8.29177 9.34093C7.46344 9.34797 6.63511 9.34374 5.80678 9.34515C5.73912 9.34515 5.67146 9.35596 5.60052 9.36159V18.1253L5.60005 18.1248ZM5.42433 6.63794C5.42902 7.52751 6.11358 8.15828 7.06501 8.1503C8.02255 8.14231 8.71839 7.50073 8.71087 6.6323C8.70335 5.73334 8.01457 5.1021 7.04998 5.11008C6.09056 5.11807 5.41963 5.74884 5.42433 6.63794Z" fill="#0077B7"/>
</svg>
