<svg width="147" height="40" viewBox="0 0 147 40" fill="none" xmlns="http://www.w3.org/2000/svg">
<path d="M37.8307 16.0819C36.6045 16.0819 35.5102 15.8709 34.5543 15.4489C33.5985 15.027 32.8404 14.46 32.2866 13.7348C31.8713 13.1811 31.5944 12.5811 31.4494 11.935C31.3703 11.5922 31.6406 11.2626 31.99 11.2626H35.174C35.4047 11.2626 35.6157 11.4076 35.6882 11.6318C35.7937 11.9548 35.9915 12.2317 36.2881 12.4559C36.6902 12.7591 37.1847 12.9108 37.778 12.9108C38.3185 12.9108 38.7272 12.8119 39.0107 12.6075C39.3139 12.3899 39.4656 12.113 39.4656 11.7768C39.4656 11.3747 39.2546 11.078 38.8327 10.8934C38.4108 10.689 37.7318 10.4715 36.7891 10.2407C35.7805 10.0034 34.9367 9.75944 34.2643 9.50891C33.5919 9.23861 33.0118 8.82986 32.5239 8.27608C32.0361 7.70251 31.7922 6.93776 31.7922 5.98181C31.7922 5.1775 32.0097 4.44571 32.4448 3.78644C32.8997 3.11398 33.5523 2.58657 34.4093 2.1976C35.2861 1.80862 36.3211 1.61744 37.5143 1.61744C39.281 1.61744 40.6654 2.05256 41.674 2.92939C42.5375 3.66118 43.0847 4.59734 43.3352 5.73129C43.4077 6.0807 43.1506 6.41034 42.7946 6.41034H39.8809C39.6501 6.41034 39.4392 6.2653 39.3667 6.04774C39.2612 5.7247 39.07 5.46099 38.7997 5.25002C38.4438 4.96653 37.9757 4.82149 37.389 4.82149C36.8814 4.82149 36.4991 4.92039 36.2288 5.12476C35.9585 5.30936 35.8266 5.57306 35.8266 5.90929C35.8266 6.31145 36.0376 6.61471 36.4595 6.81909C36.8946 7.02346 37.567 7.22124 38.4767 7.42562C39.5183 7.69592 40.3687 7.96622 41.0213 8.22993C41.674 8.48045 42.2475 8.90238 42.7353 9.48914C43.2429 10.0627 43.5 10.8341 43.5198 11.8098C43.5198 12.6339 43.2825 13.3722 42.8144 14.0315C42.3596 14.671 41.6937 15.1721 40.8236 15.5478C39.9666 15.917 38.9646 16.1016 37.8241 16.1016V16.0884L37.8307 16.0819ZM60.0663 15.4753C60.0663 15.7786 59.8224 16.0291 59.5126 16.0291H56.3021C55.9989 16.0291 55.7484 15.7852 55.7484 15.4753V14.5523C55.7484 14.3612 55.5111 14.2623 55.3858 14.4073C54.9969 14.8292 54.5222 15.1786 53.9553 15.4687C53.217 15.8379 52.3929 16.0225 51.4832 16.0225C50.4087 16.0225 49.4594 15.7852 48.6354 15.3171C47.8113 14.8292 47.1719 14.1304 46.717 13.2206C46.2622 12.3108 46.038 11.2428 46.038 10.0166V2.15145C46.038 1.84818 46.2819 1.59766 46.5918 1.59766H49.7758C50.0791 1.59766 50.3296 1.84159 50.3296 2.15145V9.44299C50.3296 10.3857 50.5735 11.1175 51.0613 11.6384C51.5491 12.1592 52.2018 12.4229 53.0258 12.4229C53.8498 12.4229 54.5288 12.1592 55.0167 11.6384C55.5045 11.1175 55.7484 10.3857 55.7484 9.44299V2.15145C55.7484 1.84818 55.9923 1.59766 56.3021 1.59766H59.5521C59.8356 1.59766 60.0663 1.8284 60.0663 2.11189V15.4753ZM68.7219 2.20419C69.4603 1.80203 70.3304 1.59766 71.3193 1.59766C72.4795 1.59766 73.5277 1.89433 74.4704 2.48108C75.413 3.06783 76.1514 3.9117 76.6919 5.00609C77.2457 6.10048 77.5226 7.36628 77.5226 8.81668C77.5226 10.2671 77.2457 11.5395 76.6919 12.6536C76.1514 13.748 75.413 14.5985 74.4704 15.1984C73.5277 15.7852 72.4795 16.0819 71.3193 16.0819C70.3436 16.0819 69.48 15.8775 68.7219 15.4753C68.1748 15.1786 67.7199 14.816 67.3442 14.3875C67.2189 14.2425 66.9816 14.3348 66.9816 14.526L66.8959 19.4375C66.8959 19.7408 66.652 19.9913 66.3421 19.9913H63.1317C62.8285 19.9913 62.578 19.7474 62.578 19.4375L62.6637 2.14485C62.6637 1.84159 62.9076 1.59107 63.2174 1.59107H66.4278C66.7311 1.59107 66.9816 1.835 66.9816 2.14485V3.06783C66.9816 3.31836 67.2848 3.44362 67.4628 3.26561C67.8188 2.89642 68.3132 2.42834 68.7219 2.20419ZM73.1387 8.81009C73.1387 7.73547 72.8355 6.89161 72.229 6.28508C71.6423 5.66536 70.9105 5.34891 70.0338 5.34891C69.157 5.34891 68.4451 5.65877 67.8386 6.28508C67.2519 6.90479 66.9552 7.75525 66.9552 8.82986C66.9552 9.90448 67.2519 10.7549 67.8386 11.3747C68.4451 11.9944 69.1768 12.3108 70.0338 12.3108C70.8908 12.3108 71.6225 12.001 72.229 11.3747C72.8355 10.7352 73.1387 9.87811 73.1387 8.80349V8.81009ZM92.9154 8.61231C92.9154 8.85624 92.9089 9.10676 92.8891 9.36387C92.8693 9.64736 92.6254 9.87151 92.3353 9.87151H83.7193C83.3699 9.87151 83.0996 10.2011 83.1787 10.544C83.3106 11.0978 83.5545 11.5461 83.9104 11.8889C84.418 12.3438 85.0311 12.5679 85.7497 12.5679C86.7056 12.5679 87.4043 12.2119 87.846 11.4933C87.9515 11.3219 88.1295 11.2032 88.3272 11.2032H91.8277C92.2167 11.2032 92.4869 11.5988 92.3419 11.9614C92.0914 12.5877 91.7486 13.1679 91.3003 13.7019C90.6939 14.4403 89.9292 15.0204 89.0062 15.4424C88.0833 15.8643 87.0483 16.0753 85.9013 16.0753C84.5235 16.0753 83.2974 15.7786 82.2162 15.1918C81.1417 14.6051 80.2979 13.7612 79.6914 12.6668C79.0849 11.5724 78.7817 10.2934 78.7817 8.82986C78.7817 7.36628 79.0783 6.0873 79.665 4.99291C80.2715 3.89851 81.1087 3.06124 82.1899 2.4679C83.2644 1.88114 84.5037 1.58447 85.8947 1.58447C87.2857 1.58447 88.4657 1.86796 89.527 2.44153C90.5884 3.01509 91.4124 3.826 91.9991 4.88742C92.6056 5.94885 92.9089 7.18169 92.9089 8.59253V8.61231H92.9154ZM87.9185 7.47836C88.2481 7.47836 88.5118 7.17509 88.4393 6.85205C88.3338 6.39715 88.1031 6.01478 87.7471 5.71151C87.2395 5.27639 86.6133 5.05883 85.8552 5.05883C85.097 5.05883 84.5169 5.2698 84.0159 5.69173C83.6863 5.97522 83.4424 6.33123 83.2842 6.77294C83.1589 7.12235 83.4424 7.48495 83.8116 7.48495H87.9185V7.47836ZM99.7516 3.80622C99.7516 3.97104 99.956 4.03696 100.055 3.90511C100.503 3.33154 101.03 2.87005 101.637 2.52064C102.224 2.17122 102.857 1.95366 103.542 1.87455C103.872 1.835 104.162 2.09211 104.162 2.42175V5.85655C104.162 6.15982 103.918 6.41034 103.608 6.41034H102.975C101.901 6.41034 101.09 6.64768 100.556 7.11576C100.015 7.57066 99.7516 8.37497 99.7516 9.53528V15.5149C99.7516 15.8181 99.5077 16.0687 99.1978 16.0687H95.9874C95.6842 16.0687 95.4337 15.8247 95.4337 15.5149V2.34263C95.4337 2.03937 95.6776 1.78885 95.9874 1.78885H99.1978C99.5011 1.78885 99.745 2.03278 99.745 2.34263V3.80622H99.7516Z" fill="#2D2D2D"/>
<path d="M47.9669 23.9468C49.0415 23.9468 50.0039 24.171 50.8412 24.6259C51.685 25.061 52.3442 25.7269 52.832 26.6169C53.3198 27.5069 53.5637 28.5947 53.5637 29.8737V37.8377C53.5637 38.0421 53.3989 38.2135 53.188 38.2135H51.6652C51.4608 38.2135 51.2894 38.0487 51.2894 37.8377V30.2033C51.2894 28.8255 50.9466 27.7706 50.2544 27.052C49.582 26.3136 48.6657 25.9444 47.5055 25.9444C46.3452 25.9444 45.363 26.3334 44.6576 27.1048C43.9523 27.8629 43.5963 28.9639 43.5963 30.4077V37.8377C43.5963 38.0421 43.4315 38.2135 43.2205 38.2135H41.6977C41.4934 38.2135 41.322 38.0487 41.322 37.8377V30.2033C41.322 28.8255 40.9792 27.7706 40.287 27.052C39.6146 26.3136 38.6982 25.9444 37.538 25.9444C36.3778 25.9444 35.3955 26.3334 34.6902 27.1048C33.9848 27.8629 33.6288 28.9639 33.6288 30.4077V37.8377C33.6288 38.0421 33.464 38.2135 33.2531 38.2135H31.7039C31.4995 38.2135 31.3281 38.0487 31.3281 37.8377V24.3424C31.3281 24.138 31.4929 23.9666 31.7039 23.9666H33.2531C33.4574 23.9666 33.6288 24.1314 33.6288 24.3424V25.5621C33.6288 25.7532 33.8661 25.839 33.9914 25.6873C34.3935 25.2061 34.8748 24.8171 35.4417 24.5204C36.213 24.1314 37.0634 23.9403 37.9863 23.9403C39.1465 23.9403 40.1749 24.204 41.0649 24.7248C41.8362 25.1731 42.436 25.806 42.8645 26.6169C42.9437 26.7751 43.1612 26.7685 43.2403 26.6169C43.6358 25.8324 44.216 25.2126 44.9741 24.7512C45.864 24.2171 46.8594 23.9468 47.9472 23.9468H47.9669ZM62.9709 38.2464C61.6788 38.2464 60.4988 37.9498 59.4374 37.363C58.3959 36.7763 57.5718 35.939 56.9653 34.8644C56.3786 33.77 56.082 32.5108 56.082 31.0802C56.082 29.6495 56.3852 28.4233 56.9917 27.3487C57.6114 26.2543 58.4552 25.4236 59.5165 24.85C60.5779 24.2633 61.7645 23.9666 63.0698 23.9666C64.375 23.9666 65.5682 24.2633 66.623 24.85C67.6843 25.4236 68.5149 26.2477 69.1214 27.3223C69.7411 28.3969 70.0575 29.6495 70.0575 31.0802C70.0575 32.5108 69.7411 33.77 69.1017 34.8644C68.482 35.939 67.6316 36.7763 66.5571 37.363C65.4825 37.9498 64.2893 38.2464 62.9775 38.2464H62.9709ZM62.9709 36.2291C63.7949 36.2291 64.5662 36.0379 65.2913 35.6489C66.0165 35.2599 66.5966 34.6798 67.0317 33.9084C67.4866 33.1371 67.7107 32.1943 67.7107 31.0802C67.7107 29.966 67.4932 29.0298 67.0581 28.2519C66.623 27.4739 66.0494 26.907 65.3441 26.5378C64.6387 26.1488 63.874 25.9576 63.05 25.9576C62.226 25.9576 61.4349 26.1488 60.7295 26.5378C60.0373 26.907 59.4836 27.4805 59.0617 28.2519C58.6398 29.0232 58.4288 29.966 58.4288 31.0802C58.4288 32.1943 58.6332 33.1569 59.0353 33.9282C59.4572 34.6996 60.011 35.2797 60.7031 35.6687C61.3953 36.0379 62.1468 36.2225 62.9709 36.2225V36.2291ZM79.313 23.9534C80.9941 23.9534 82.3587 24.4677 83.4002 25.4895C84.4418 26.4982 84.9626 27.9618 84.9626 29.8803V37.8113C84.9626 38.0553 84.7648 38.2596 84.5143 38.2596H83.1431C82.8992 38.2596 82.6949 38.0618 82.6949 37.8113V30.2099C82.6949 28.832 82.3521 27.7772 81.6599 27.0586C80.9677 26.3202 80.0316 25.951 78.8318 25.951C77.632 25.951 76.6564 26.3268 75.9312 27.085C75.2258 27.8431 74.8699 28.9441 74.8699 30.3879V37.8113C74.8699 38.0553 74.6721 38.2596 74.4216 38.2596H73.024C72.7801 38.2596 72.5758 38.0618 72.5758 37.8113V24.3688C72.5758 24.1248 72.7735 23.9205 73.024 23.9205H74.4216C74.6655 23.9205 74.8699 24.1183 74.8699 24.3688V25.4368C74.8699 25.6675 75.1533 25.773 75.305 25.595C75.6939 25.1599 76.1619 24.8039 76.7091 24.527C77.5002 24.138 78.3638 23.9468 79.3064 23.9468H79.313V23.9534ZM88.674 23.1096C88.2389 23.1096 87.8698 22.9579 87.5665 22.6547C87.2633 22.3514 87.1116 21.9822 87.1116 21.5471C87.1116 21.112 87.2633 20.7428 87.5665 20.4395C87.8698 20.1363 88.2389 19.9846 88.674 19.9846C89.1091 19.9846 89.4453 20.1363 89.7354 20.4395C90.0386 20.7428 90.1902 21.112 90.1902 21.5471C90.1902 21.9822 90.0386 22.3514 89.7354 22.6547C89.4519 22.9579 89.0959 23.1096 88.674 23.1096ZM89.7815 24.382V37.8245C89.7815 38.0684 89.5837 38.2728 89.3332 38.2728H87.9357C87.6918 38.2728 87.4874 38.075 87.4874 37.8245V24.382C87.4874 24.138 87.6852 23.9337 87.9357 23.9337H89.3332C89.5772 23.9337 89.7815 24.1314 89.7815 24.382ZM96.8484 26.1093C96.71 26.1093 96.5979 26.2213 96.5979 26.3598V34.2578C96.5979 34.9303 96.7429 35.4116 97.0264 35.6951C97.3099 35.9654 97.8109 36.0972 98.5162 36.0972H99.7556C99.9995 36.0972 100.204 36.295 100.204 36.5455V37.8245C100.204 38.0684 100.006 38.2728 99.7556 38.2728H98.1339C96.855 38.2728 95.8991 37.9761 95.2597 37.3894C94.6202 36.8026 94.3038 35.6028 94.3038 34.2578V26.3598C94.3038 26.2213 94.1917 26.1093 94.0533 26.1093H92.959C92.7151 26.1093 92.5107 25.9115 92.5107 25.6609V24.6655C92.5107 24.4215 92.7085 24.2171 92.959 24.2171H94.0533C94.1917 24.2171 94.3038 24.1051 94.3038 23.9666V20.4263C94.3038 20.1824 94.5016 19.978 94.7521 19.978H96.1496C96.3935 19.978 96.5979 20.1758 96.5979 20.4263V23.9666C96.5979 24.1051 96.71 24.2171 96.8484 24.2171H99.7556C99.9995 24.2171 100.204 24.4149 100.204 24.6655V25.6609C100.204 25.9049 100.006 26.1093 99.7556 26.1093H96.8484ZM108.352 38.2662C107.06 38.2662 105.88 37.9695 104.818 37.3828C103.777 36.796 102.953 35.9588 102.346 34.8842C101.76 33.7898 101.463 32.5306 101.463 31.0999C101.463 29.6693 101.766 28.4431 102.373 27.3685C102.992 26.2741 103.836 25.4434 104.898 24.8698C105.959 24.2831 107.145 23.9864 108.451 23.9864C109.756 23.9864 110.949 24.2831 112.004 24.8698C113.065 25.4434 113.896 26.2675 114.502 27.3421C115.122 28.4167 115.438 29.6693 115.438 31.0999C115.438 32.5306 115.122 33.7898 114.483 34.8842C113.863 35.9588 113.013 36.796 111.938 37.3828C110.863 37.9695 109.67 38.2662 108.358 38.2662H108.352ZM108.352 36.2488C109.176 36.2488 109.947 36.0577 110.672 35.6687C111.397 35.2797 111.978 34.6996 112.413 33.9282C112.868 33.1569 113.092 32.2141 113.092 31.0999C113.092 29.9858 112.874 29.0496 112.439 28.2717C112.004 27.4937 111.43 26.9268 110.725 26.5576C110.02 26.1686 109.255 25.9774 108.431 25.9774C107.607 25.9774 106.816 26.1686 106.11 26.5576C105.418 26.9268 104.865 27.5003 104.443 28.2717C104.021 29.043 103.81 29.9858 103.81 31.0999C103.81 32.2141 104.014 33.1766 104.416 33.948C104.838 34.7193 105.392 35.2995 106.084 35.6885C106.776 36.0577 107.528 36.2423 108.352 36.2423V36.2488ZM120.251 25.8521C120.251 26.017 120.462 26.0829 120.554 25.9444C120.923 25.3972 121.398 24.9555 121.965 24.6259C122.584 24.2699 123.31 24.0589 124.147 23.993C124.45 23.9666 124.714 24.1974 124.714 24.5072V25.806C124.714 26.1027 124.476 26.3466 124.18 26.3532C123.883 26.3598 123.54 26.3664 123.435 26.3796C121.312 26.6103 120.257 28.0014 120.257 30.533V37.7981C120.257 38.0684 120.04 38.2794 119.776 38.2794H118.451C118.181 38.2794 117.97 38.0618 117.97 37.7981V24.4281C117.97 24.1578 118.187 23.9468 118.451 23.9468H119.776C120.046 23.9468 120.257 24.1644 120.257 24.4281V25.8587L120.251 25.8521ZM128.438 23.0766C128.003 23.0766 127.634 22.925 127.331 22.6217C127.028 22.3184 126.876 21.9493 126.876 21.5141C126.876 21.079 127.028 20.7098 127.331 20.4066C127.634 20.1033 128.003 19.9517 128.438 19.9517C128.873 19.9517 129.21 20.1033 129.5 20.4066C129.803 20.7098 129.955 21.079 129.955 21.5141C129.955 21.9493 129.803 22.3184 129.5 22.6217C129.216 22.925 128.86 23.0766 128.438 23.0766ZM129.546 24.4215V37.7915C129.546 38.0618 129.328 38.2728 129.065 38.2728H127.74C127.469 38.2728 127.258 38.0553 127.258 37.7915V24.4215C127.258 24.1512 127.476 23.9403 127.74 23.9403H129.065C129.335 23.9403 129.546 24.1578 129.546 24.4215ZM132.064 31.0868C132.064 29.6759 132.348 28.4365 132.921 27.3816C133.495 26.307 134.273 25.4698 135.268 24.883C136.277 24.2963 137.397 23.9996 138.623 23.9996C139.85 23.9996 140.885 24.2633 141.775 24.7841C142.414 25.1599 142.941 25.6082 143.343 26.1158C143.482 26.2939 143.765 26.2016 143.765 25.9774V24.5138C143.765 24.1974 144.022 23.9403 144.339 23.9403H145.512C145.829 23.9403 146.086 24.1974 146.086 24.5138V37.7058C146.086 38.0223 145.829 38.2794 145.512 38.2794H144.339C144.022 38.2794 143.765 38.0223 143.765 37.7058V36.2423C143.765 36.0181 143.488 35.9258 143.343 36.1038C142.922 36.6378 142.381 37.0993 141.722 37.4949C140.832 38.0157 139.79 38.2794 138.597 38.2794C137.404 38.2794 136.257 37.9761 135.268 37.3696C134.279 36.7631 133.495 35.9126 132.921 34.8248C132.348 33.7304 132.064 32.4844 132.064 31.0933V31.0868ZM143.765 31.1065C143.765 30.0649 143.554 29.1551 143.133 28.3837C142.711 27.6124 142.144 27.019 141.419 26.6169C140.713 26.195 139.929 25.984 139.072 25.984C138.215 25.984 137.43 26.1884 136.725 26.5905C136.019 26.9927 135.453 27.5794 135.037 28.3574C134.622 29.1353 134.404 30.0385 134.404 31.0802C134.404 32.1218 134.615 33.0646 135.037 33.8557C135.459 34.627 136.019 35.227 136.725 35.6489C137.43 36.0511 138.215 36.2554 139.072 36.2554C139.929 36.2554 140.713 36.0511 141.419 35.6489C142.144 35.227 142.711 34.6336 143.133 33.8557C143.554 33.0646 143.765 32.1482 143.765 31.1065Z" fill="#2D2D2D"/>
<path d="M23.5828 20.0232C23.5828 22.1725 21.9017 23.9129 19.8252 23.9129H5.67823C3.60168 23.9129 1.91406 22.1725 1.91406 20.0232C1.91406 17.874 3.60168 16.127 5.67823 16.127H19.8252C21.9017 16.127 23.5828 17.874 23.5828 20.0232Z" fill="#1B8C63"/>
<path d="M2.71265 37.2496L1.24431 35.7811C0.55908 35.0958 0.55908 33.977 1.24431 33.2917L17.3029 17.232C18.8132 15.7216 21.2604 15.7263 22.7661 17.232C24.2764 18.7424 24.2717 21.1898 22.7661 22.6956L8.21313 37.2496C6.69351 38.7693 4.22761 38.7646 2.71265 37.2496Z" fill="url(#paint0_linear_677_2669)"/>
<path d="M22.7893 2.75043L24.2576 4.21889C24.9429 4.90416 24.9429 6.02298 24.2576 6.70826L8.19906 22.768C6.68877 24.2784 4.24152 24.2737 2.73588 22.768C1.22558 21.2576 1.23025 18.8102 2.73588 17.3044L17.2842 2.7551C18.8038 1.23536 21.2697 1.24003 22.7846 2.7551L22.7893 2.75043Z" fill="url(#paint1_linear_677_2669)"/>
<path opacity="0.4" d="M24.2573 6.71369L8.95667 22.0088L7.04492 23.5581L22.7872 2.75146L24.2573 4.22164C24.9429 4.90728 24.9429 6.02145 24.2573 6.71369Z" fill="url(#paint2_linear_677_2669)"/>
<path opacity="0.4" d="M22.7665 22.7071L8.21747 37.2572C7.44618 38.0285 6.43757 38.4109 5.43555 38.3977L22.7665 17.2417C24.2762 18.7514 24.2762 21.1973 22.7665 22.7071Z" fill="url(#paint3_linear_677_2669)"/>
<defs>
<linearGradient id="paint0_linear_677_2669" x1="12.6007" y1="16.0909" x2="13.6748" y2="37.6585" gradientUnits="userSpaceOnUse">
<stop stop-color="#81BE5C"/>
<stop offset="1" stop-color="#00936C"/>
</linearGradient>
<linearGradient id="paint1_linear_677_2669" x1="22.6658" y1="2.7509" x2="2.58947" y2="22.8258" gradientUnits="userSpaceOnUse">
<stop stop-color="#81BE5C"/>
<stop offset="1" stop-color="#00936C"/>
</linearGradient>
<linearGradient id="paint2_linear_677_2669" x1="22.8202" y1="2.77124" x2="9.87819" y2="25.1923" gradientUnits="userSpaceOnUse">
<stop stop-color="#CAEC50"/>
<stop offset="1" stop-color="#00936C" stop-opacity="0"/>
</linearGradient>
<linearGradient id="paint3_linear_677_2669" x1="22.0875" y1="16.8461" x2="8.59178" y2="40.2165" gradientUnits="userSpaceOnUse">
<stop stop-color="#CAEC50"/>
<stop offset="1" stop-color="#00936C" stop-opacity="0"/>
</linearGradient>
</defs>
</svg>
