<svg width="176" height="48" viewBox="0 0 176 48" fill="none" xmlns="http://www.w3.org/2000/svg">
<path d="M45.398 19.2755C43.9256 19.2755 42.6116 19.0236 41.4638 18.5199C40.316 18.0162 39.4056 17.3394 38.7407 16.4736C38.242 15.8125 37.9095 15.0963 37.7354 14.3251C37.6404 13.9158 37.9649 13.5223 38.3845 13.5223H42.2079C42.4849 13.5223 42.7382 13.6954 42.8253 13.963C42.952 14.3487 43.1895 14.6792 43.5457 14.9468C44.0285 15.3088 44.6222 15.4899 45.3347 15.4899C45.9838 15.4899 46.4746 15.3718 46.8149 15.1278C47.1791 14.8681 47.3611 14.5376 47.3611 14.1362C47.3611 13.6561 47.1078 13.3019 46.6012 13.0816C46.0946 12.8376 45.2793 12.5779 44.1473 12.3024C42.9361 12.0191 41.9229 11.7279 41.1155 11.4288C40.3081 11.1061 39.6115 10.6182 39.0257 9.95706C38.4399 9.27235 38.147 8.3594 38.147 7.21821C38.147 6.25804 38.4082 5.38444 38.9307 4.59742C39.4769 3.79465 40.2606 3.16503 41.2896 2.70068C42.3425 2.23634 43.5853 2.0081 45.018 2.0081C47.1395 2.0081 48.8018 2.52754 50.013 3.57428C51.05 4.44788 51.707 5.56546 52.0078 6.91914C52.0949 7.33627 51.7861 7.72978 51.3587 7.72978H47.8598C47.5828 7.72978 47.3295 7.55664 47.2424 7.29692C47.1158 6.91127 46.8862 6.59646 46.5616 6.34461C46.1342 6.00619 45.5721 5.83305 44.8676 5.83305C44.2581 5.83305 43.799 5.9511 43.4744 6.19508C43.1499 6.41545 42.9916 6.73026 42.9916 7.13164C42.9916 7.61173 43.2449 7.97376 43.7515 8.21774C44.2739 8.46172 45.0814 8.69782 46.1738 8.9418C47.4245 9.26448 48.4456 9.58716 49.2293 9.90197C50.013 10.201 50.7017 10.7047 51.2874 11.4052C51.897 12.0899 52.2057 13.0107 52.2294 14.1755C52.2294 15.1593 51.9445 16.0408 51.3824 16.8278C50.8362 17.5912 50.0367 18.1894 48.9918 18.638C47.9628 19.0787 46.7595 19.2991 45.3901 19.2991V19.2833L45.398 19.2755ZM72.0984 18.5514C72.0984 18.9134 71.8055 19.2125 71.4335 19.2125H67.5784C67.2143 19.2125 66.9135 18.9213 66.9135 18.5514V17.4496C66.9135 17.2213 66.6285 17.1033 66.4781 17.2764C66.0111 17.7801 65.4411 18.1972 64.7603 18.5435C63.8738 18.9843 62.8843 19.2046 61.7919 19.2046C60.5016 19.2046 59.3617 18.9213 58.3722 18.3625C57.3827 17.7801 56.6149 16.9459 56.0687 15.8598C55.5225 14.7737 55.2533 13.4987 55.2533 12.0348V2.64559C55.2533 2.28356 55.5462 1.98449 55.9183 1.98449H59.7416C60.1058 1.98449 60.4066 2.27569 60.4066 2.64559V11.3501C60.4066 12.4755 60.6995 13.3491 61.2853 13.9709C61.871 14.5926 62.6547 14.9075 63.6442 14.9075C64.6337 14.9075 65.449 14.5926 66.0348 13.9709C66.6206 13.3491 66.9135 12.4755 66.9135 11.3501V2.64559C66.9135 2.28356 67.2064 1.98449 67.5784 1.98449H71.481C71.8213 1.98449 72.0984 2.25995 72.0984 2.59837V18.5514ZM82.492 2.70855C83.3786 2.22847 84.4235 1.98449 85.6109 1.98449C87.0041 1.98449 88.2627 2.33865 89.3947 3.03911C90.5267 3.73956 91.4132 4.74695 92.0624 6.05342C92.7273 7.35988 93.0598 8.87097 93.0598 10.6024C93.0598 12.3339 92.7273 13.8528 92.0624 15.1829C91.4132 16.4894 90.5267 17.5046 89.3947 18.2208C88.2627 18.9213 87.0041 19.2755 85.6109 19.2755C84.4393 19.2755 83.4023 19.0315 82.492 18.5514C81.835 18.1972 81.2888 17.7644 80.8376 17.2528C80.6872 17.0797 80.4022 17.1898 80.4022 17.4181L80.2993 23.2814C80.2993 23.6434 80.0064 23.9425 79.6344 23.9425H75.7793C75.4152 23.9425 75.1144 23.6513 75.1144 23.2814L75.2173 2.63772C75.2173 2.27569 75.5102 1.97662 75.8822 1.97662H79.7373C80.1014 1.97662 80.4022 2.26782 80.4022 2.63772V3.73956C80.4022 4.03863 80.7663 4.18816 80.9801 3.97567C81.4075 3.53493 82.0012 2.97614 82.492 2.70855ZM87.7957 10.5946C87.7957 9.3117 87.4315 8.30431 86.7033 7.58025C85.9988 6.84044 85.1201 6.46267 84.0673 6.46267C83.0145 6.46267 82.1595 6.83257 81.4313 7.58025C80.7268 8.32005 80.3705 9.33531 80.3705 10.6182C80.3705 11.901 80.7268 12.9163 81.4313 13.6561C82.1595 14.3959 83.0382 14.7737 84.0673 14.7737C85.0963 14.7737 85.975 14.4038 86.7033 13.6561C87.4315 12.8927 87.7957 11.8695 87.7957 10.5867V10.5946ZM111.543 10.3584C111.543 10.6496 111.536 10.9487 111.512 11.2557C111.488 11.5941 111.195 11.8617 110.847 11.8617H100.501C100.081 11.8617 99.7566 12.2552 99.8516 12.6644C100.01 13.3255 100.303 13.8607 100.73 14.27C101.34 14.813 102.076 15.0806 102.939 15.0806C104.087 15.0806 104.926 14.6556 105.456 13.7978C105.583 13.5931 105.796 13.4515 106.034 13.4515H110.237C110.704 13.4515 111.029 13.9237 110.855 14.3565C110.554 15.1042 110.142 15.7968 109.604 16.4343C108.876 17.3158 107.958 18.0083 106.849 18.512C105.741 19.0157 104.498 19.2676 103.121 19.2676C101.466 19.2676 99.9941 18.9134 98.6959 18.213C97.4056 17.5125 96.3924 16.5051 95.6641 15.1987C94.9358 13.8922 94.5717 12.3654 94.5717 10.6182C94.5717 8.87097 94.9279 7.34414 95.6324 6.03767C96.3607 4.73121 97.366 3.73169 98.6642 3.02337C99.9545 2.32291 101.443 1.96875 103.113 1.96875C104.783 1.96875 106.2 2.30717 107.475 2.99188C108.749 3.6766 109.739 4.64464 110.443 5.91175C111.171 7.17886 111.536 8.6506 111.536 10.3348V10.3584H111.543ZM105.543 9.00476C105.939 9.00476 106.256 8.64273 106.169 8.25709C106.042 7.71404 105.765 7.25757 105.337 6.89553C104.728 6.3761 103.976 6.11638 103.065 6.11638C102.155 6.11638 101.459 6.36823 100.857 6.87192C100.461 7.21034 100.168 7.63534 99.9783 8.16265C99.8279 8.57977 100.168 9.01263 100.612 9.01263H105.543V9.00476ZM119.752 4.62103C119.752 4.81778 119.998 4.89649 120.116 4.73908C120.655 4.05437 121.288 3.50345 122.016 3.08633C122.721 2.6692 123.481 2.40948 124.304 2.31504C124.7 2.26782 125.048 2.57476 125.048 2.96827V7.06868C125.048 7.43071 124.755 7.72978 124.383 7.72978H123.623C122.333 7.72978 121.359 8.01311 120.718 8.5719C120.069 9.11495 119.752 10.0751 119.752 11.4603V18.5986C119.752 18.9606 119.459 19.2597 119.087 19.2597H115.232C114.868 19.2597 114.567 18.9685 114.567 18.5986V2.87383C114.567 2.5118 114.86 2.21273 115.232 2.21273H119.087C119.451 2.21273 119.744 2.50393 119.744 2.87383V4.62103H119.752Z" fill="white"/>
<path d="M57.4973 28.7333C58.7868 28.7333 59.9418 29.0021 60.9466 29.5475C61.9592 30.0691 62.7503 30.8675 63.3357 31.9345C63.9212 33.0016 64.2139 34.3058 64.2139 35.8392V45.3875C64.2139 45.6326 64.0161 45.8381 63.763 45.8381H61.9355C61.6902 45.8381 61.4845 45.6405 61.4845 45.3875V36.2344C61.4845 34.5825 61.0731 33.3178 60.2425 32.4562C59.4355 31.5709 58.3358 31.1283 56.9435 31.1283C55.5511 31.1283 54.3723 31.5947 53.5258 32.5195C52.6793 33.4284 52.2521 34.7484 52.2521 36.4795V45.3875C52.2521 45.6326 52.0543 45.8381 51.8012 45.8381H49.9737C49.7284 45.8381 49.5227 45.6405 49.5227 45.3875V36.2344C49.5227 34.5825 49.1113 33.3178 48.2807 32.4562C47.4737 31.5709 46.3741 31.1283 44.9817 31.1283C43.5893 31.1283 42.4105 31.5947 41.564 32.5195C40.7175 33.4284 40.2903 34.7484 40.2903 36.4795V45.3875C40.2903 45.6326 40.0925 45.8381 39.8394 45.8381H37.9802C37.735 45.8381 37.5293 45.6405 37.5293 45.3875V29.2076C37.5293 28.9625 37.7271 28.757 37.9802 28.757H39.8394C40.0846 28.757 40.2903 28.9546 40.2903 29.2076V30.6699C40.2903 30.8991 40.5751 31.0018 40.7254 30.82C41.208 30.243 41.7855 29.7767 42.4659 29.421C43.3915 28.9546 44.4121 28.7254 45.5196 28.7254C46.912 28.7254 48.1462 29.0416 49.2142 29.666C50.1398 30.2035 50.8597 30.9623 51.374 31.9345C51.4689 32.1242 51.73 32.1163 51.8249 31.9345C52.2996 30.9939 52.9958 30.2509 53.9056 29.6976C54.9736 29.0574 56.1682 28.7333 57.4735 28.7333H57.4973ZM75.5032 45.8776C73.9526 45.8776 72.5365 45.5219 71.2628 44.8184C70.0128 44.115 69.0239 43.1111 68.2961 41.8227C67.592 40.5106 67.236 39.0009 67.236 37.2857C67.236 35.5705 67.5999 34.1003 68.3277 32.8119C69.0714 31.4998 70.084 30.5039 71.3577 29.8162C72.6314 29.1127 74.0555 28.757 75.6219 28.757C77.1883 28.757 78.6203 29.1127 79.8861 29.8162C81.1598 30.5039 82.1566 31.4919 82.8844 32.7803C83.6281 34.0687 84.0078 35.5705 84.0078 37.2857C84.0078 39.0009 83.6281 40.5106 82.8607 41.8227C82.117 43.1111 81.0965 44.115 79.8069 44.8184C78.5174 45.5219 77.0855 45.8776 75.5111 45.8776H75.5032ZM75.5032 43.4589C76.4921 43.4589 77.4177 43.2297 78.288 42.7633C79.1582 42.297 79.8544 41.6014 80.3765 40.6766C80.9224 39.7518 81.1914 38.6215 81.1914 37.2857C81.1914 35.9499 80.9303 34.8275 80.4082 33.8948C79.8861 32.9621 79.1978 32.2823 78.3513 31.8397C77.5048 31.3733 76.5871 31.1441 75.5982 31.1441C74.6093 31.1441 73.6599 31.3733 72.8134 31.8397C71.9827 32.2823 71.3182 32.97 70.8119 33.8948C70.3055 34.8196 70.0524 35.9499 70.0524 37.2857C70.0524 38.6215 70.2976 39.7755 70.7802 40.7003C71.2865 41.6251 71.9511 42.3207 72.7818 42.7871C73.6124 43.2297 74.5143 43.451 75.5032 43.451V43.4589ZM95.1152 28.7412C97.1325 28.7412 98.7702 29.3578 100.02 30.5829C101.27 31.7923 101.895 33.547 101.895 35.8471V45.3559C101.895 45.6484 101.658 45.8934 101.357 45.8934H99.7116C99.4189 45.8934 99.1736 45.6563 99.1736 45.3559V36.2423C99.1736 34.5904 98.7623 33.3257 97.9316 32.4641C97.1009 31.5788 95.9775 31.1362 94.5377 31.1362C93.0978 31.1362 91.927 31.5868 91.0567 32.4957C90.2102 33.4047 89.783 34.7247 89.783 36.4558V45.3559C89.783 45.6484 89.5457 45.8934 89.245 45.8934H87.5679C87.2751 45.8934 87.0299 45.6563 87.0299 45.3559V29.2392C87.0299 28.9467 87.2672 28.7017 87.5679 28.7017H89.245C89.5378 28.7017 89.783 28.9388 89.783 29.2392V30.5197C89.783 30.7963 90.1232 30.9228 90.3051 30.7094C90.7719 30.1877 91.3336 29.7609 91.9902 29.4289C92.9396 28.9625 93.976 28.7333 95.1073 28.7333H95.1152V28.7412ZM106.349 27.7295C105.827 27.7295 105.384 27.5477 105.02 27.1841C104.656 26.8205 104.474 26.3779 104.474 25.8562C104.474 25.3345 104.656 24.8919 105.02 24.5283C105.384 24.1647 105.827 23.9829 106.349 23.9829C106.871 23.9829 107.275 24.1647 107.623 24.5283C107.987 24.8919 108.169 25.3345 108.169 25.8562C108.169 26.3779 107.987 26.8205 107.623 27.1841C107.283 27.5477 106.855 27.7295 106.349 27.7295ZM107.678 29.255V45.3717C107.678 45.6642 107.441 45.9092 107.14 45.9092H105.463C105.17 45.9092 104.925 45.6721 104.925 45.3717V29.255C104.925 28.9625 105.162 28.7175 105.463 28.7175H107.14C107.433 28.7175 107.678 28.9546 107.678 29.255ZM116.159 31.3259C115.993 31.3259 115.858 31.4603 115.858 31.6263V41.0955C115.858 41.9018 116.032 42.4788 116.373 42.8187C116.713 43.1427 117.314 43.3008 118.161 43.3008H119.648C119.941 43.3008 120.186 43.538 120.186 43.8383V45.3717C120.186 45.6642 119.949 45.9092 119.648 45.9092H117.702C116.167 45.9092 115.02 45.5535 114.252 44.8501C113.485 44.1466 113.105 42.708 113.105 41.0955V31.6263C113.105 31.4603 112.971 31.3259 112.805 31.3259H111.491C111.199 31.3259 110.953 31.0888 110.953 30.7884V29.5949C110.953 29.3024 111.191 29.0574 111.491 29.0574H112.805C112.971 29.0574 113.105 28.923 113.105 28.757V24.5125C113.105 24.22 113.343 23.975 113.643 23.975H115.32C115.613 23.975 115.858 24.2121 115.858 24.5125V28.757C115.858 28.923 115.993 29.0574 116.159 29.0574H119.648C119.941 29.0574 120.186 29.2945 120.186 29.5949V30.7884C120.186 31.0809 119.949 31.3259 119.648 31.3259H116.159ZM129.964 45.9013C128.414 45.9013 126.997 45.5456 125.724 44.8422C124.474 44.1387 123.485 43.1348 122.757 41.8464C122.053 40.5343 121.697 39.0246 121.697 37.3094C121.697 35.5942 122.061 34.124 122.789 32.8356C123.532 31.5235 124.545 30.5276 125.819 29.8399C127.092 29.1364 128.516 28.7808 130.083 28.7808C131.649 28.7808 133.081 29.1364 134.347 29.8399C135.621 30.5276 136.618 31.5156 137.345 32.804C138.089 34.0924 138.469 35.5942 138.469 37.3094C138.469 39.0246 138.089 40.5343 137.322 41.8464C136.578 43.1348 135.557 44.1387 134.268 44.8422C132.978 45.5456 131.546 45.9013 129.972 45.9013H129.964ZM129.964 43.4826C130.953 43.4826 131.879 43.2534 132.749 42.7871C133.619 42.3207 134.315 41.6251 134.837 40.7003C135.383 39.7755 135.652 38.6452 135.652 37.3094C135.652 35.9736 135.391 34.8512 134.869 33.9185C134.347 32.9858 133.659 32.306 132.812 31.8634C131.966 31.3971 131.048 31.1678 130.059 31.1678C129.07 31.1678 128.121 31.3971 127.274 31.8634C126.444 32.306 125.779 32.9937 125.273 33.9185C124.766 34.8433 124.513 35.9736 124.513 37.3094C124.513 38.6452 124.759 39.7993 125.241 40.724C125.747 41.6488 126.412 42.3444 127.243 42.8108C128.073 43.2534 128.975 43.4747 129.964 43.4747V43.4826ZM144.244 31.0176C144.244 31.2153 144.497 31.2943 144.608 31.1283C145.051 30.4723 145.621 29.9427 146.301 29.5475C147.045 29.1206 147.915 28.8677 148.919 28.7887C149.283 28.757 149.6 29.0337 149.6 29.4052V30.9623C149.6 31.318 149.315 31.6105 148.959 31.6184C148.603 31.6263 148.192 31.6342 148.065 31.65C145.518 31.9266 144.252 33.5944 144.252 36.6297V45.3401C144.252 45.6642 143.991 45.9171 143.674 45.9171H142.084C141.76 45.9171 141.507 45.6563 141.507 45.3401V29.3103C141.507 28.9863 141.768 28.7333 142.084 28.7333H143.674C143.999 28.7333 144.252 28.9942 144.252 29.3103V31.0256L144.244 31.0176ZM154.07 27.69C153.548 27.69 153.105 27.5082 152.741 27.1446C152.377 26.781 152.195 26.3383 152.195 25.8167C152.195 25.295 152.377 24.8523 152.741 24.4888C153.105 24.1252 153.548 23.9434 154.07 23.9434C154.592 23.9434 154.995 24.1252 155.343 24.4888C155.707 24.8523 155.889 25.295 155.889 25.8167C155.889 26.3383 155.707 26.781 155.343 27.1446C155.003 27.5082 154.576 27.69 154.07 27.69ZM155.399 29.3024V45.3322C155.399 45.6563 155.138 45.9092 154.821 45.9092H153.231C152.907 45.9092 152.654 45.6484 152.654 45.3322V29.3024C152.654 28.9784 152.915 28.7254 153.231 28.7254H154.821C155.146 28.7254 155.399 28.9863 155.399 29.3024ZM158.421 37.2936C158.421 35.6021 158.761 34.1161 159.449 32.8514C160.138 31.563 161.071 30.5592 162.266 29.8557C163.476 29.1522 164.821 28.7966 166.293 28.7966C167.764 28.7966 169.006 29.1127 170.074 29.7372C170.842 30.1877 171.474 30.7252 171.957 31.3338C172.123 31.5472 172.463 31.4366 172.463 31.1678V29.4131C172.463 29.0337 172.772 28.7254 173.152 28.7254H174.56C174.94 28.7254 175.248 29.0337 175.248 29.4131V45.2295C175.248 45.6089 174.94 45.9171 174.56 45.9171H173.152C172.772 45.9171 172.463 45.6089 172.463 45.2295V43.4747C172.463 43.206 172.131 43.0953 171.957 43.3087C171.451 43.949 170.802 44.5023 170.011 44.9765C168.943 45.601 167.693 45.9171 166.261 45.9171C164.829 45.9171 163.452 45.5535 162.266 44.8263C161.079 44.0992 160.138 43.0795 159.449 41.7753C158.761 40.4632 158.421 38.9693 158.421 37.3015V37.2936ZM172.463 37.3173C172.463 36.0685 172.21 34.9777 171.704 34.0529C171.198 33.1281 170.517 32.4167 169.647 31.9345C168.8 31.4287 167.859 31.1757 166.831 31.1757C165.802 31.1757 164.861 31.4208 164.014 31.9029C163.168 32.3851 162.487 33.0886 161.989 34.0213C161.49 34.954 161.229 36.0368 161.229 37.2857C161.229 38.5346 161.483 39.6649 161.989 40.6134C162.495 41.5382 163.168 42.2575 164.014 42.7633C164.861 43.2455 165.802 43.4905 166.831 43.4905C167.859 43.4905 168.8 43.2455 169.647 42.7633C170.517 42.2575 171.198 41.5461 171.704 40.6134C172.21 39.6649 172.463 38.5662 172.463 37.3173Z" fill="white"/>
<path d="M28.2484 24.0414C28.2484 26.6036 26.2351 28.6785 23.748 28.6785H6.80423C4.31715 28.6785 2.2959 26.6036 2.2959 24.0414C2.2959 21.4792 4.31715 19.3965 6.80423 19.3965H23.748C26.2351 19.3965 28.2484 21.4792 28.2484 24.0414Z" fill="#1B8C63"/>
<path d="M3.25604 44.6995L1.49385 42.9373C0.671494 42.115 0.670289 40.7736 1.49117 39.9528L20.7287 20.7157C22.538 18.9065 25.4724 18.9147 27.2793 20.7216C29.0918 22.5341 29.0889 25.4684 27.2852 27.272L9.85132 44.7054C8.03087 46.5258 5.07417 46.5176 3.25604 44.6995Z" fill="url(#paint0_linear_1255_4764)"/>
<path d="M27.3504 3.30051L29.1126 5.06265C29.935 5.88498 29.935 7.22756 29.1126 8.04989L9.84042 27.3215C8.02789 29.134 5.09091 29.1284 3.28397 27.3215C1.47143 25.509 1.47703 22.5721 3.28397 20.7653L20.7436 3.30611C22.5673 1.48243 25.5267 1.48803 27.3448 3.30611L27.3504 3.30051Z" fill="url(#paint1_linear_1255_4764)"/>
<path opacity="0.4" d="M29.1471 8.05658L10.834 26.4377L8.5459 28.2996L27.3876 3.29492L29.1471 5.06173C29.9677 5.88571 29.9677 7.22467 29.1471 8.05658Z" fill="url(#paint2_linear_1255_4764)"/>
<path opacity="0.4" d="M27.2676 27.28L9.8024 44.7373C8.87652 45.6628 7.66575 46.1216 6.46289 46.1057L27.2676 20.7227C29.0798 22.534 29.0798 25.4686 27.2676 27.28Z" fill="url(#paint3_linear_1255_4764)"/>
<defs>
<linearGradient id="paint0_linear_1255_4764" x1="14.5933" y1="20.0052" x2="15.851" y2="45.8604" gradientUnits="userSpaceOnUse">
<stop stop-color="#81BE5C"/>
<stop offset="1" stop-color="#00936C"/>
</linearGradient>
<linearGradient id="paint1_linear_1255_4764" x1="27.4434" y1="3.22634" x2="3.34506" y2="27.3253" gradientUnits="userSpaceOnUse">
<stop stop-color="#81BE5C"/>
<stop offset="1" stop-color="#00936C"/>
</linearGradient>
<linearGradient id="paint2_linear_1255_4764" x1="27.4271" y1="3.31869" x2="11.8423" y2="30.2086" gradientUnits="userSpaceOnUse">
<stop stop-color="#CAEC50"/>
<stop offset="1" stop-color="#00936C" stop-opacity="0"/>
</linearGradient>
<linearGradient id="paint3_linear_1255_4764" x1="26.4525" y1="20.2481" x2="10.2644" y2="48.2952" gradientUnits="userSpaceOnUse">
<stop stop-color="#CAEC50"/>
<stop offset="1" stop-color="#00936C" stop-opacity="0"/>
</linearGradient>
</defs>
</svg>
