<svg width="218" height="195" viewBox="0 0 218 195" fill="none" xmlns="http://www.w3.org/2000/svg">
<path fill-rule="evenodd" clip-rule="evenodd" d="M0 178.804V121.692L45.5141 147.97C57.3423 154.799 61.395 169.924 54.5659 181.752C47.7369 193.58 32.6122 197.633 20.7839 190.804L0 178.804Z" fill="url(#paint0_linear_415_3)"/>
<path fill-rule="evenodd" clip-rule="evenodd" d="M191.694 0L201.912 5.89923C210.87 11.0714 213.94 22.5266 208.767 31.4851C203.595 40.4436 192.14 43.513 183.182 38.3408L116.773 0H107.203C108.902 1.89132 110.924 3.5508 113.245 4.89084L180.182 43.5369C192.01 50.366 207.134 46.3133 213.964 34.4851C220.793 22.6568 216.74 7.53212 204.912 0.703075L203.694 0H191.694Z" fill="url(#paint1_linear_415_3)"/>
<path fill-rule="evenodd" clip-rule="evenodd" d="M49.9137 0L143.211 53.8655C169.624 69.1147 178.673 102.888 163.424 129.3C148.175 155.713 114.402 164.762 87.9893 149.513L0 98.7125V0H49.9137Z" fill="url(#paint2_linear_415_3)"/>
<defs>
<linearGradient id="paint0_linear_415_3" x1="60.9528" y1="100.031" x2="-20.8734" y2="161.805" gradientUnits="userSpaceOnUse">
<stop stop-color="#92CB59"/>
<stop offset="1" stop-color="#0F976A"/>
</linearGradient>
<linearGradient id="paint1_linear_415_3" x1="223.118" y1="-14.013" x2="181.89" y2="77.4876" gradientUnits="userSpaceOnUse">
<stop stop-color="#92CB59"/>
<stop offset="1" stop-color="#0F976A"/>
</linearGradient>
<linearGradient id="paint2_linear_415_3" x1="85.4158" y1="0" x2="85.4158" y2="156.921" gradientUnits="userSpaceOnUse">
<stop stop-color="#2D2D2C"/>
<stop offset="1" stop-color="#3F3F30"/>
</linearGradient>
</defs>
</svg>
