<svg width="497" height="136" viewBox="0 0 497 136" fill="none" xmlns="http://www.w3.org/2000/svg">
<path d="M128.943 54.612C124.772 54.612 121.049 53.8985 117.797 52.4715C114.545 51.0446 111.966 49.1271 110.083 46.6744C108.67 44.8015 107.728 42.7726 107.235 40.5875C106.966 39.4281 107.885 38.3133 109.074 38.3133H119.905C120.69 38.3133 121.408 38.8038 121.654 39.5619C122.013 40.6544 122.686 41.5908 123.695 42.3489C125.063 43.3746 126.745 43.8874 128.763 43.8874C130.602 43.8874 131.993 43.5529 132.957 42.8617C133.989 42.126 134.504 41.1895 134.504 40.0524C134.504 38.6923 133.787 37.689 132.352 37.0647C130.916 36.3735 128.606 35.6377 125.4 34.8573C121.968 34.0546 119.098 33.2297 116.81 32.3824C114.523 31.4682 112.55 30.0859 110.89 28.213C109.231 26.2732 108.401 23.6868 108.401 20.4538C108.401 17.7336 109.141 15.2587 110.621 13.0291C112.168 10.7548 114.388 8.9711 117.304 7.6556C120.286 6.34011 123.807 5.69351 127.866 5.69351C133.877 5.69351 138.586 7.16508 142.017 10.1305C144.955 12.6054 146.816 15.7715 147.668 19.6065C147.915 20.7882 147.04 21.9031 145.829 21.9031H135.917C135.132 21.9031 134.415 21.4125 134.168 20.6767C133.809 19.5842 133.159 18.6924 132.239 17.9789C131.028 17.0201 129.436 16.5296 127.44 16.5296C125.714 16.5296 124.413 16.864 123.493 17.5552C122.574 18.1795 122.125 19.0714 122.125 20.2085C122.125 21.5686 122.843 22.5942 124.278 23.2854C125.758 23.9766 128.046 24.6455 131.141 25.3367C134.684 26.2509 137.577 27.165 139.797 28.0569C142.017 28.9041 143.968 30.3311 145.628 32.3155C147.354 34.2553 148.229 36.864 148.296 40.1639C148.296 42.9509 147.489 45.4481 145.897 47.6778C144.349 49.8405 142.084 51.5351 139.124 52.806C136.209 54.0546 132.8 54.6789 128.92 54.6789V54.6343L128.943 54.612ZM204.585 52.5607C204.585 53.5863 203.755 54.4336 202.701 54.4336H191.78C190.748 54.4336 189.896 53.6086 189.896 52.5607V49.4392C189.896 48.7926 189.089 48.4582 188.663 48.9487C187.34 50.3757 185.725 51.5574 183.796 52.5384C181.285 53.787 178.482 54.4113 175.387 54.4113C171.731 54.4113 168.502 53.6086 165.699 52.0256C162.896 50.3757 160.72 48.0122 159.173 44.9353C157.625 41.8584 156.863 38.2464 156.863 34.0992V7.49953C156.863 6.47389 157.693 5.62662 158.747 5.62662H169.578C170.61 5.62662 171.462 6.45159 171.462 7.49953V32.1594C171.462 35.3478 172.292 37.8227 173.951 39.5842C175.611 41.3456 177.831 42.2374 180.634 42.2374C183.438 42.2374 185.747 41.3456 187.407 39.5842C189.066 37.8227 189.896 35.3478 189.896 32.1594V7.49953C189.896 6.47389 190.726 5.62662 191.78 5.62662H202.836C203.8 5.62662 204.585 6.407 204.585 7.36575V52.5607ZM234.03 7.6779C236.542 6.31782 239.502 5.62662 242.866 5.62662C246.813 5.62662 250.379 6.62997 253.586 8.61435C256.793 10.5987 259.304 13.4527 261.143 17.1539C263.027 20.8551 263.969 25.136 263.969 30.0413C263.969 34.9465 263.027 39.2497 261.143 43.0178C259.304 46.719 256.793 49.5953 253.586 51.6243C250.379 53.6086 246.813 54.612 242.866 54.612C239.547 54.612 236.609 53.9208 234.03 52.5607C232.169 51.5574 230.622 50.3311 229.343 48.8818C228.917 48.3913 228.11 48.7034 228.11 49.35L227.818 65.9609C227.818 66.9865 226.989 67.8338 225.935 67.8338H215.013C213.982 67.8338 213.129 67.0088 213.129 65.9609L213.421 7.47723C213.421 6.45159 214.251 5.60433 215.305 5.60433H226.226C227.258 5.60433 228.11 6.4293 228.11 7.47723V10.5987C228.11 11.446 229.141 11.8696 229.747 11.2676C230.958 10.019 232.64 8.43598 234.03 7.6779ZM249.056 30.019C249.056 26.3846 248.024 23.5307 245.961 21.4794C243.965 19.3836 241.476 18.3133 238.493 18.3133C235.51 18.3133 233.088 19.3613 231.025 21.4794C229.029 23.5753 228.02 26.4515 228.02 30.0859C228.02 33.7202 229.029 36.5964 231.025 38.6923C233.088 40.7882 235.578 41.8584 238.493 41.8584C241.408 41.8584 243.898 40.8105 245.961 38.6923C248.024 36.5295 249.056 33.631 249.056 29.9967V30.019ZM316.333 29.3501C316.333 30.175 316.311 31.0223 316.243 31.8919C316.176 32.8506 315.346 33.6087 314.36 33.6087H285.049C283.861 33.6087 282.941 34.7235 283.21 35.8829C283.659 37.7559 284.488 39.272 285.699 40.4314C287.426 41.9699 289.512 42.728 291.956 42.728C295.208 42.728 297.585 41.524 299.088 39.0936C299.446 38.5139 300.052 38.1126 300.725 38.1126H312.633C313.956 38.1126 314.875 39.4504 314.382 40.6767C313.53 42.7949 312.364 44.7569 310.839 46.563C308.776 49.0602 306.174 51.0223 303.035 52.4492C299.895 53.8762 296.374 54.5897 292.472 54.5897C287.785 54.5897 283.614 53.5863 279.936 51.602C276.281 49.6176 273.41 46.7636 271.347 43.0624C269.284 39.3612 268.252 35.0357 268.252 30.0859C268.252 25.136 269.261 20.8105 271.257 17.1093C273.32 13.4081 276.168 10.5764 279.846 8.56976C283.502 6.58537 287.718 5.58203 292.45 5.58203C297.181 5.58203 301.196 6.54078 304.806 8.48057C308.417 10.4204 311.22 13.1628 313.216 16.7526C315.279 20.3423 316.311 24.5117 316.311 29.2832V29.3501H316.333ZM299.334 25.5151C300.456 25.5151 301.353 24.4894 301.106 23.3969C300.747 21.8585 299.962 20.5653 298.751 19.5396C297.024 18.0681 294.894 17.3323 292.315 17.3323C289.736 17.3323 287.763 18.0458 286.058 19.4727C284.937 20.4315 284.107 21.6355 283.569 23.1294C283.143 24.3111 284.107 25.5374 285.363 25.5374H299.334V25.5151ZM339.589 13.0959C339.589 13.6534 340.284 13.8763 340.62 13.4304C342.145 11.4906 343.939 9.92984 346.003 8.74813C347.998 7.56642 350.151 6.83063 352.484 6.56308C353.605 6.4293 354.592 7.29886 354.592 8.41368V20.0301C354.592 21.0558 353.762 21.9031 352.708 21.9031H350.555C346.9 21.9031 344.141 22.7057 342.325 24.2888C340.486 25.8272 339.589 28.5474 339.589 32.4716V52.6945C339.589 53.7201 338.759 54.5674 337.705 54.5674H326.784C325.752 54.5674 324.9 53.7424 324.9 52.6945V8.14613C324.9 7.12049 325.73 6.27322 326.784 6.27322H337.705C338.737 6.27322 339.566 7.09819 339.566 8.14613V13.0959H339.589Z" fill="#3F3F3F"/>
<path d="M163.218 81.404C166.871 81.404 170.143 82.1653 172.99 83.7104C175.858 85.1883 178.1 87.45 179.758 90.473C181.417 93.496 182.246 97.1908 182.246 101.535V128.585C182.246 129.28 181.686 129.862 180.968 129.862H175.791C175.096 129.862 174.514 129.302 174.514 128.585V102.655C174.514 97.9746 173.348 94.3918 170.995 91.9509C168.709 89.443 165.593 88.189 161.649 88.189C157.704 88.189 154.365 89.5101 151.967 92.1301C149.568 94.7053 148.358 98.4448 148.358 103.349V128.585C148.358 129.28 147.798 129.862 147.081 129.862H141.903C141.209 129.862 140.626 129.302 140.626 128.585V102.655C140.626 97.9746 139.46 94.3918 137.107 91.9509C134.821 89.443 131.706 88.189 127.761 88.189C123.816 88.189 120.477 89.5101 118.079 92.1301C115.681 94.7053 114.47 98.4448 114.47 103.349V128.585C114.47 129.28 113.91 129.862 113.193 129.862H107.926C107.231 129.862 106.648 129.302 106.648 128.585V82.7475C106.648 82.0534 107.209 81.4712 107.926 81.4712H113.193C113.888 81.4712 114.47 82.031 114.47 82.7475V86.8902C114.47 87.5396 115.277 87.8307 115.703 87.3157C117.07 85.681 118.706 84.3598 120.634 83.3521C123.256 82.031 126.147 81.3816 129.285 81.3816C133.23 81.3816 136.726 82.2773 139.752 84.0463C142.374 85.569 144.414 87.7187 145.87 90.473C146.139 91.0105 146.879 90.9881 147.148 90.473C148.493 87.8083 150.465 85.7034 153.042 84.1359C156.068 82.3221 159.452 81.404 163.15 81.404H163.218ZM214.229 129.974C209.836 129.974 205.824 128.966 202.216 126.973C198.674 124.98 195.873 122.136 193.811 118.486C191.816 114.769 190.808 110.492 190.808 105.633C190.808 100.774 191.839 96.6086 193.901 92.9586C196.007 89.2414 198.876 86.4199 202.485 84.4718C206.093 82.4788 210.127 81.4712 214.565 81.4712C219.003 81.4712 223.059 82.4788 226.645 84.4718C230.254 86.4199 233.078 89.219 235.14 92.869C237.246 96.5191 238.322 100.774 238.322 105.633C238.322 110.492 237.246 114.769 235.072 118.486C232.966 122.136 230.074 124.98 226.421 126.973C222.768 128.966 218.711 129.974 214.251 129.974H214.229ZM214.229 123.122C217.03 123.122 219.653 122.472 222.118 121.151C224.583 119.83 226.556 117.859 228.035 115.239C229.581 112.619 230.343 109.417 230.343 105.633C230.343 101.849 229.604 98.6688 228.125 96.0264C226.645 93.3841 224.695 91.4583 222.297 90.2043C219.899 88.8831 217.299 88.2338 214.498 88.2338C211.696 88.2338 209.007 88.8831 206.608 90.2043C204.255 91.4583 202.372 93.4065 200.938 96.0264C199.504 98.6464 198.786 101.849 198.786 105.633C198.786 109.417 199.481 112.687 200.848 115.307C202.283 117.927 204.165 119.897 206.519 121.218C208.872 122.472 211.427 123.099 214.229 123.099V123.122ZM269.789 81.4264C275.505 81.4264 280.144 83.173 283.685 86.6439C287.226 90.07 288.997 95.0411 288.997 101.557V128.496C288.997 129.324 288.325 130.019 287.473 130.019H282.811C281.982 130.019 281.287 129.347 281.287 128.496V102.677C281.287 97.997 280.122 94.4142 277.768 91.9733C275.415 89.4654 272.232 88.2114 268.153 88.2114C264.074 88.2114 260.757 89.4877 258.292 92.0629C255.894 94.6381 254.683 98.3777 254.683 103.282V128.496C254.683 129.324 254.011 130.019 253.159 130.019H248.408C247.579 130.019 246.884 129.347 246.884 128.496V82.8371C246.884 82.0086 247.556 81.3144 248.408 81.3144H253.159C253.989 81.3144 254.683 81.9862 254.683 82.8371V86.4647C254.683 87.2485 255.647 87.6068 256.163 87.0022C257.485 85.5242 259.076 84.315 260.936 83.3745C263.626 82.0534 266.562 81.404 269.767 81.404H269.789V81.4264ZM301.615 78.5601C300.136 78.5601 298.881 78.0451 297.85 77.015C296.819 75.9849 296.303 74.7309 296.303 73.253C296.303 71.7751 296.819 70.5211 297.85 69.491C298.881 68.461 300.136 67.9459 301.615 67.9459C303.095 67.9459 304.238 68.461 305.224 69.491C306.255 70.5211 306.77 71.7751 306.77 73.253C306.77 74.7309 306.255 75.9849 305.224 77.015C304.26 78.0451 303.05 78.5601 301.615 78.5601ZM305.381 82.8819V128.541C305.381 129.369 304.708 130.063 303.857 130.063H299.105C298.276 130.063 297.581 129.392 297.581 128.541V82.8819C297.581 82.0534 298.253 81.3592 299.105 81.3592H303.857C304.686 81.3592 305.381 82.031 305.381 82.8819ZM329.407 88.7488C328.936 88.7488 328.555 89.1295 328.555 89.5997V116.426C328.555 118.71 329.048 120.345 330.012 121.308C330.976 122.226 332.679 122.674 335.077 122.674H339.291C340.12 122.674 340.815 123.346 340.815 124.196V128.541C340.815 129.369 340.142 130.063 339.291 130.063H333.777C329.429 130.063 326.179 129.056 324.005 127.063C321.831 125.07 320.756 120.994 320.756 116.426V89.5997C320.756 89.1295 320.375 88.7488 319.904 88.7488H316.183C315.354 88.7488 314.659 88.077 314.659 87.2261V83.8448C314.659 83.0163 315.332 82.3221 316.183 82.3221H319.904C320.375 82.3221 320.756 81.9414 320.756 81.4712V69.4463C320.756 68.6177 321.428 67.9236 322.28 67.9236H327.031C327.86 67.9236 328.555 68.5953 328.555 69.4463V81.4712C328.555 81.9414 328.936 82.3221 329.407 82.3221H339.291C340.12 82.3221 340.815 82.9939 340.815 83.8448V87.2261C340.815 88.0546 340.142 88.7488 339.291 88.7488H329.407ZM368.517 130.041C364.124 130.041 360.112 129.033 356.504 127.04C352.962 125.047 350.161 122.204 348.099 118.554C346.104 114.836 345.096 110.559 345.096 105.7C345.096 100.841 346.127 96.6758 348.189 93.0258C350.295 89.3086 353.164 86.4871 356.773 84.539C360.381 82.546 364.415 81.5383 368.853 81.5383C373.291 81.5383 377.347 82.546 380.933 84.539C384.542 86.4871 387.366 89.2862 389.428 92.9362C391.534 96.5862 392.61 100.841 392.61 105.7C392.61 110.559 391.534 114.836 389.36 118.554C387.254 122.204 384.362 125.047 380.709 127.04C377.056 129.033 372.999 130.041 368.539 130.041H368.517ZM368.517 123.189C371.318 123.189 373.941 122.539 376.406 121.218C378.871 119.897 380.844 117.927 382.323 115.307C383.869 112.687 384.631 109.484 384.631 105.7C384.631 101.916 383.892 98.7359 382.413 96.0936C380.933 93.4513 378.983 91.5255 376.585 90.2715C374.187 88.9503 371.587 88.3009 368.786 88.3009C365.984 88.3009 363.295 88.9503 360.896 90.2715C358.543 91.5255 356.661 93.4737 355.226 96.0936C353.792 98.7136 353.075 101.916 353.075 105.7C353.075 109.484 353.769 112.754 355.136 115.374C356.571 117.994 358.454 119.964 360.807 121.285C363.16 122.539 365.715 123.166 368.517 123.166V123.189ZM408.971 87.8755C408.971 88.4353 409.689 88.6592 410.002 88.189C411.258 86.3304 412.871 84.8301 414.799 83.7104C416.905 82.5012 419.371 81.7847 422.217 81.5607C423.248 81.4712 424.145 82.2549 424.145 83.3074V87.7187C424.145 88.7264 423.338 89.5549 422.329 89.5773C421.321 89.5997 420.155 89.6221 419.797 89.6669C412.58 90.4506 408.994 95.1755 408.994 103.774V128.451C408.994 129.369 408.254 130.086 407.358 130.086H402.853C401.934 130.086 401.217 129.347 401.217 128.451V83.0386C401.217 82.1205 401.956 81.404 402.853 81.404H407.358C408.277 81.404 408.994 82.1429 408.994 83.0386V87.8979L408.971 87.8755ZM436.808 78.4481C435.329 78.4481 434.074 77.9331 433.043 76.903C432.012 75.873 431.496 74.619 431.496 73.1411C431.496 71.6631 432.012 70.4091 433.043 69.3791C434.074 68.349 435.329 67.834 436.808 67.834C438.287 67.834 439.43 68.349 440.416 69.3791C441.447 70.4091 441.963 71.6631 441.963 73.1411C441.963 74.619 441.447 75.873 440.416 76.903C439.453 77.9331 438.242 78.4481 436.808 78.4481ZM440.573 83.0163V128.429C440.573 129.347 439.833 130.063 438.937 130.063H434.432C433.513 130.063 432.796 129.324 432.796 128.429V83.0163C432.796 82.0982 433.536 81.3816 434.432 81.3816H438.937C439.856 81.3816 440.573 82.1205 440.573 83.0163ZM449.135 105.655C449.135 100.863 450.098 96.6534 452.048 93.0706C453.998 89.4206 456.643 86.5767 460.027 84.5837C463.456 82.5908 467.266 81.5831 471.435 81.5831C475.604 81.5831 479.123 82.4788 482.148 84.2479C484.322 85.5242 486.115 87.0469 487.483 88.7712C487.953 89.3758 488.917 89.0623 488.917 88.3009V83.3298C488.917 82.2549 489.791 81.3816 490.867 81.3816H494.856C495.932 81.3816 496.806 82.2549 496.806 83.3298V128.138C496.806 129.212 495.932 130.086 494.856 130.086H490.867C489.791 130.086 488.917 129.212 488.917 128.138V123.166C488.917 122.405 487.976 122.092 487.483 122.696C486.048 124.51 484.21 126.077 481.969 127.421C478.943 129.19 475.402 130.086 471.346 130.086C467.289 130.086 463.389 129.056 460.027 126.996C456.665 124.935 453.998 122.047 452.048 118.352C450.098 114.635 449.135 110.403 449.135 105.678V105.655ZM488.917 105.722C488.917 102.184 488.2 99.0942 486.765 96.4743C485.331 93.8543 483.404 91.839 480.938 90.473C478.54 89.0399 475.873 88.3233 472.959 88.3233C470.046 88.3233 467.379 89.0175 464.98 90.3835C462.582 91.7494 460.655 93.7424 459.243 96.3847C457.831 99.027 457.091 102.095 457.091 105.633C457.091 109.171 457.808 112.373 459.243 115.06C460.677 117.68 462.582 119.718 464.98 121.151C467.379 122.517 470.046 123.211 472.959 123.211C475.873 123.211 478.54 122.517 480.938 121.151C483.404 119.718 485.331 117.703 486.765 115.06C488.2 112.373 488.917 109.261 488.917 105.722Z" fill="#3F3F3F"/>
<path d="M80.3536 68.1137C80.3536 75.3724 74.6498 81.2506 67.6039 81.2506H19.6022C12.5563 81.2506 6.83008 75.3724 6.83008 68.1137C6.83008 60.855 12.5563 54.9546 19.6022 54.9546H67.6039C74.6498 54.9546 80.3536 60.855 80.3536 68.1137Z" fill="#1B8C63"/>
<path d="M9.55562 126.639L4.56334 121.647C2.23361 119.317 2.2302 115.517 4.55574 113.191L59.0559 58.6929C64.1816 53.5673 72.4946 53.5906 77.6137 58.7096C82.7486 63.8443 82.7402 72.1571 77.6303 77.2668L28.2401 126.656C23.0827 131.813 14.7064 131.79 9.55562 126.639Z" fill="url(#paint0_linear_415_3)"/>
<path d="M77.8116 9.35525L82.8038 14.3474C85.1336 16.6771 85.1336 20.4806 82.8038 22.8103L28.2057 77.4069C23.0708 82.5416 14.7503 82.5258 9.63125 77.4069C4.49633 72.2721 4.51218 63.9519 9.63125 58.8329L59.0945 9.37109C64.2611 4.20462 72.6449 4.22047 77.7957 9.3711L77.8116 9.35525Z" fill="url(#paint1_linear_415_3)"/>
<path opacity="0.4" d="M82.9024 22.8296L31.0214 74.9034L24.5391 80.1781L77.9177 9.33984L82.9024 14.3452C85.2271 16.6795 85.2271 20.4728 82.9024 22.8296Z" fill="url(#paint2_linear_415_3)"/>
<path opacity="0.4" d="M77.5764 77.288L28.0976 126.745C25.4745 129.366 22.0444 130.666 18.6367 130.621L77.5764 58.7109C82.7104 63.8426 82.7104 72.1563 77.5764 77.288Z" fill="url(#paint3_linear_415_3)"/>
<defs>
<linearGradient id="paint0_linear_415_3" x1="41.674" y1="56.68" x2="45.2373" y2="129.928" gradientUnits="userSpaceOnUse">
<stop stop-color="#81BE5C"/>
<stop offset="1" stop-color="#00936C"/>
</linearGradient>
<linearGradient id="paint1_linear_415_3" x1="78.075" y1="9.1451" x2="9.80432" y2="77.4177" gradientUnits="userSpaceOnUse">
<stop stop-color="#81BE5C"/>
<stop offset="1" stop-color="#00936C"/>
</linearGradient>
<linearGradient id="paint2_linear_415_3" x1="78.0295" y1="9.40718" x2="33.8778" y2="85.5863" gradientUnits="userSpaceOnUse">
<stop stop-color="#CAEC50"/>
<stop offset="1" stop-color="#00936C" stop-opacity="0"/>
</linearGradient>
<linearGradient id="paint3_linear_415_3" x1="75.2673" y1="57.3664" x2="29.4064" y2="136.824" gradientUnits="userSpaceOnUse">
<stop stop-color="#CAEC50"/>
<stop offset="1" stop-color="#00936C" stop-opacity="0"/>
</linearGradient>
</defs>
</svg>
